<svg width="20" height="20" viewBox="0 0 20 20" xmlns="http://www.w3.org/2000/svg">
    <path fill="none" stroke="#000" stroke-width="1.03" d="M14.138.515c-1.238 0-2.033.156-4.461 1.142a5.161 5.161 0 00-.882-.543C7.874.667 7.045.515 5.868.515c-1.535 0-2.863.62-3.81 1.648C1.085 3.218.515 4.698.515 6.367c0 2.595 1.507 5.081 4.234 7.494 1.473 1.303 3.351 2.593 4.697 3.28l.554.281.554-.283c1.346-.684 3.224-1.975 4.697-3.277 2.727-2.414 4.234-4.9 4.234-7.494 0-1.65-.576-3.126-1.55-4.185A5.123 5.123 0 0014.138.515z" ></path>
</svg>
